{"title":"The Sentinel 2006 Brrip X264 Dual Audio English Hindi GOPI SAHI","uid":10236042,"size":322677268,"categoryP":"video","categoryS":"movies","magnet":"?xt=urn:btih:0a74426f91f5545ed6c269825e7d7e7c423e3e8f&amp;dn=The+Sentinel+2006+Brrip+X264+Dual+Audio+English+Hindi+GOPI+SAHI&amp;tr=udp%3A%2F%2Ftracker.openbittorrent.com%3A80&amp;tr=udp%3A%2F%2Fopen.demonii.com%3A1337&amp;tr=udp%3A%2F%2Ftracker.coppersurfer.tk%3A6969&amp;tr=udp%3A%2F%2Fexodus.desync.com%3A6969","seeders":1,"leechers":1,"uploader":"jatt13","files":1,"time":1401184974,"description":"\nVideo\nID                             : 1\nFormat                         : AVC\nFormat/Info                    : Advanced Video Codec\nFormat profile                 : &lt;a class=&quot;__cf_email__&quot; href=&quot;/cdn-cgi/l/email-protection&quot; data-cfemail=&quot;f8b5999196b8b4cbd6c9&quot;&gt;[email&amp;#160;protected]&lt;/a&gt;&lt;script data-cfhash='f9e31' type=&quot;text/javascript&quot;&gt;\n/* &lt;![CDATA[ */!function(){try{var t=&quot;currentScript&quot;in document?document.currentScript:function(){for(var t=document.getElementsByTagName(&quot;script&quot;),e=t.length;e--;)if(t[e].getAttribute(&quot;data-cfhash&quot;))return t[e]}();if(t&amp;&amp;t.previousSibling){var e,r,n,i,c=t.previousSibling,a=c.getAttribute(&quot;data-cfemail&quot;);if(a){for(e=&quot;&quot;,r=parseInt(a.substr(0,2),16),n=2;a.length-n;n+=2)i=parseInt(a.substr(n,2),16)^r,e+=String.fromCharCode(i);e=document.createTextNode(e),c.parentNode.replaceChild(e,c)}t.parentNode.removeChild(t);}}catch(u){}}()/* ]]&gt; */&lt;/script&gt;\nFormat settings, CABAC         : Yes\nFormat settings, ReFrames      : 4 frames\nCodec ID                       : V_MPEG4/ISO/AVC\nDuration                       : 1h 48mn\nBit rate                       : 300 Kbps\nWidth                          : 720 pixels\nHeight                         : 304 pixels\nDisplay aspect ratio           : 2.35:1\nFrame rate mode                : Constant\nFrame rate                     : 30.000 fps\nColor space                    : YUV\nChroma subsampling             : 4:2:0\nBit depth                      : 8 bits\nScan type                      : Progressive\nBits/(Pixel*Frame)             : 0.046\nStream size                    : 227 MiB (74%)\nTitle                          : GOPI SAHI\nWriting library                : x264 core 130 r2273 b3065e6\nLanguage                       : English\nDefault                        : Yes\nForced                         : No\nColor primaries                : BT.709\nTransfer characteristics       : BT.709\nMatrix coefficients            : BT.709\n\nAudio #1\nID                             : 2\nFormat                         : MPEG Audio\nFormat version                 : Version 1\nFormat profile                 : Layer 3\nMode                           : Joint stereo\nMode extension                 : MS Stereo\nCodec ID                       : A_MPEG/L3\nCodec ID/Hint                  : MP3\nDuration                       : 1h 48mn\nBit rate mode                  : Constant\nBit rate                       : 48.0 Kbps\nChannel count                  : 2 channels\nSampling rate                  : 44.1 KHz\nCompression mode               : Lossy\nStream size                    : 37.1 MiB (12%)\nTitle                          : GOPI SAHI\nLanguage                       : Hindi\nDefault                        : Yes\nForced                         : No\n\nAudio #2\nID                             : 4\nFormat                         : MPEG Audio\nFormat version                 : Version 2\nFormat profile                 : Layer 3\nMode                           : Joint stereo\nMode extension                 : MS Stereo\nCodec ID                       : A_MPEG/L3\nCodec ID/Hint                  : MP3\nDuration                       : 1h 48mn\nBit rate mode                  : Constant\nBit rate                       : 48.0 Kbps\nChannel count                  : 2 channels\nSampling rate                  : 24.0 KHz\nCompression mode               : Lossy\nStream size                    : 37.1 MiB (12%)\nTitle                          : GOPI SAHI\nLanguage                       : English\nDefault                        : No\nForced                         : No\n\n[IMG]http://i.imgur.com/1hvhUIV.jpg[/IMG]\n[IMG]http://i.imgur.com/mMeKgi4.jpg[/IMG]\n[IMG]http://i.imgur.com/mo8COl8.jpg[/IMG]\n[IMG]http://i.imgur.com/GuPgGge.jpg[/IMG]\n[IMG]http://i.imgur.com/zSZzZLZ.jpg[/IMG]\n[IMG]http://i.imgur.com/fB314Fw.jpg[/IMG]","torrent":{"xt":"urn:btih:0a74426f91f5545ed6c269825e7d7e7c423e3e8f","amp;dn":"The+Sentinel+2006+Brrip+X264+Dual+Audio+English+Hindi+GOPI+SAHI","amp;tr":["udp%3A%2F%2Ftracker.openbittorrent.com%3A80","udp%3A%2F%2Fopen.demonii.com%3A1337","udp%3A%2F%2Ftracker.coppersurfer.tk%3A6969","udp%3A%2F%2Fexodus.desync.com%3A6969"],"infoHash":"0a74426f91f5545ed6c269825e7d7e7c423e3e8f","infoHashBuffer":{"type":"Buffer","data":[10,116,66,111,145,245,84,94,214,194,105,130,94,125,126,124,66,62,62,143]},"announce":[],"urlList":[]}}